<?xml version="1.0" encoding="utf-8"?>
<!-- Generator: Adobe Illustrator 21.0.2, SVG Export Plug-In . SVG Version: 6.00 Build 0)  -->
<svg version="1.1" id="Layer_1" xmlns="http://www.w3.org/2000/svg" xmlns:xlink="http://www.w3.org/1999/xlink" x="0px" y="0px"
	 viewBox="0 0 44 44" style="enable-background:new 0 0 44 44;" xml:space="preserve">
<style type="text/css">
	.st0{opacity:0.5;fill:#FFFFFF;}
</style>
<path class="st0" d="M31.2,21.5c0.4,0,0.8,0.4,0.8,0.8v5.1c0,2.1-1.7,3.9-3.9,3.9H15.9c-2.1,0-3.9-1.7-3.9-3.9v-5.2
	c0-0.4,0.4-0.8,0.8-0.8c0.4,0,0.8,0.4,0.8,0.8v5.2c0,1.3,1,2.3,2.3,2.3h12.3c1.3,0,2.3-1,2.3-2.3v-5.1
	C30.4,21.9,30.8,21.5,31.2,21.5z"/>
<path class="st0" d="M22,27c0.2,0,0.4-0.1,0.6-0.2l3.6-3.6c0.1-0.1,0.2-0.3,0.2-0.6c0-0.2-0.1-0.4-0.2-0.6c-0.3-0.3-0.8-0.3-1.1,0
	l-2.2,2.2V13.5c0-0.4-0.4-0.8-0.8-0.8c-0.4,0-0.8,0.4-0.8,0.8v10.8L19,22.1c-0.3-0.3-0.8-0.3-1.1,0c-0.3,0.3-0.3,0.8,0,1.1l3.6,3.6
	C21.6,26.9,21.8,27,22,27z"/>
</svg>
