<svg id="Layer_1" xmlns="http://www.w3.org/2000/svg" viewBox="0 0 44 44"><style>.st0{opacity:1;fill:#278}</style><path class="st0" d="M31.2 21.5c.4 0 .8.4.8.8v5.1c0 2.1-1.7 3.9-3.9 3.9H15.9c-2.1 0-3.9-1.7-3.9-3.9v-5.2c0-.4.4-.8.8-.8s.8.4.8.8v5.2c0 1.3 1 2.3 2.3 2.3h12.3c1.3 0 2.3-1 2.3-2.3v-5.1c-.1-.4.3-.8.7-.8z"/><path class="st0" d="M22 27c.2 0 .4-.1.6-.2l3.6-3.6c.1-.1.2-.3.2-.6 0-.2-.1-.4-.2-.6-.3-.3-.8-.3-1.1 0l-2.2 2.2V13.5c0-.4-.4-.8-.8-.8s-.8.4-.8.8v10.8L19 22.1c-.3-.3-.8-.3-1.1 0-.3.3-.3.8 0 1.1l3.6 3.6c.1.1.3.2.5.2z"/></svg>