<svg id="Layer_1" xmlns="http://www.w3.org/2000/svg" viewBox="0 0 44 44"><style>.st0{opacity:1;fill:#278;enable-background:new}</style><path class="st0" d="M22.5 31.2c0 .4-.4.8-.8.8h-5.1c-2.1 0-3.8-1.7-3.8-3.8V15.9c0-2.1 1.7-3.8 3.8-3.8h5.2c.4 0 .8.4.8.8s-.4.8-.8.8h-5.2c-1.2 0-2.3 1.1-2.3 2.3v12.3c0 1.2 1.1 2.3 2.3 2.3h5.1c.4-.2.8.2.8.6zm8.6-9.7l-3.6-3.6c-.3-.3-.8-.3-1.1 0-.3.3-.3.8 0 1.1l2.2 2.2H17.8c-.4 0-.8.4-.8.8s.4.8.8.8h10.8L26.4 25c-.3.3-.3.8 0 1.1.2.2.4.3.5.3s.4-.1.5-.3l3.6-3.6c.2-.2.3-.4.3-.5-.1-.2-.1-.4-.2-.5z"/></svg>