<?xml version="1.0" encoding="utf-8"?>
<!-- Generator: Adobe Illustrator 21.0.2, SVG Export Plug-In . SVG Version: 6.00 Build 0)  -->
<svg version="1.1" id="Layer_1" xmlns="http://www.w3.org/2000/svg" xmlns:xlink="http://www.w3.org/1999/xlink" x="0px" y="0px"
	 viewBox="0 0 44 44" style="enable-background:new 0 0 44 44;" xml:space="preserve">
<style type="text/css">
	.st0{opacity:0.5;fill:#FFFFFF;enable-background:new    ;}
</style>
<path class="st0" d="M22.5,31.2c0,0.4-0.4,0.8-0.8,0.8h-5.1c-2.1,0-3.8-1.7-3.8-3.8V15.9c0-2.1,1.7-3.8,3.8-3.8h5.2
	c0.4,0,0.8,0.4,0.8,0.8s-0.4,0.8-0.8,0.8h-5.2c-1.2,0-2.3,1.1-2.3,2.3v12.3c0,1.2,1.1,2.3,2.3,2.3h5.1
	C22.1,30.4,22.5,30.8,22.5,31.2z M31.1,21.5l-3.6-3.6c-0.3-0.3-0.8-0.3-1.1,0c-0.3,0.3-0.3,0.8,0,1.1l2.2,2.2H17.8
	c-0.4,0-0.8,0.4-0.8,0.8s0.4,0.8,0.8,0.8h10.8L26.4,25c-0.3,0.3-0.3,0.8,0,1.1c0.2,0.2,0.4,0.3,0.5,0.3s0.4-0.1,0.5-0.3l3.6-3.6
	c0.2-0.2,0.3-0.4,0.3-0.5C31.2,21.8,31.2,21.6,31.1,21.5z"/>
</svg>
