<?xml version="1.0" encoding="utf-8"?>
<!-- Generator: Adobe Illustrator 21.0.2, SVG Export Plug-In . SVG Version: 6.00 Build 0)  -->
<svg version="1.1" id="Layer_1" xmlns="http://www.w3.org/2000/svg" xmlns:xlink="http://www.w3.org/1999/xlink" x="0px" y="0px"
	 viewBox="0 0 1231.7 172.2" style="enable-background:new 0 0 1231.7 172.2;" xml:space="preserve">
<style type="text/css">
	.st0{fill:#CCCCCC;}
	.st1{fill:#227788;}
</style>
<path class="st0" d="M49.8,72.7c-6,0-11,1-15,3s-6,5-6,8.9c0,3.7,1.1,6.6,3.4,8.5c2.3,2,6.9,3.4,13.9,4.4l16.3,2.4
	c12.4,1.8,21.5,5.4,27.3,10.7c5.9,5.4,8.8,12.8,8.8,22.4c0,12.5-4.8,22-14.3,28.3s-21.2,9.5-35,9.5c-9.3,0-17.5-0.9-24.6-2.7
	c-7.2-1.8-13.9-4.6-20.2-8.3L0,134.2l25.4-3.9l2.2,12c6.8,2.9,13.5,4.4,20,4.4c6.8,0,12.5-1.1,17-3.3s6.7-5.3,6.7-9.4
	c0-3.3-1.2-5.9-3.5-7.8c-2.4-2-6.9-3.3-13.5-4.1l-14.9-2.4c-12-2-21.3-5.7-27.9-11.3c-6.6-5.6-9.9-13-9.9-22.1
	c0-10.7,4.3-19.3,12.9-25.9c8.6-6.5,20.2-9.8,34.9-9.8c15.8,0,29,3.9,39.8,11.7L93.6,86l-22.7,3.9L67,75.5
	C61.1,73.6,55.4,72.7,49.8,72.7z M140.2,159.3c-7.1-7.6-10.6-19-10.6-34.1V79.8h-20.2V55.1h20.2V35.4l29.8-9.5v29.3h29.3v24.6h-29.3
	v38.5c0,8.8,1.3,15.5,4,20.1s6.7,7,12.1,7c4.4,0,9.7-1.6,15.9-4.9l5.9,22.9c-9.8,4.9-18.5,7.3-26.3,7.3
	C157.5,170.7,147.3,166.9,140.2,159.3z M292.2,166.1c-8,3.1-16.1,4.6-24,4.6c-12.5,0-23.5-2.5-33.1-7.6c-9.5-5-16.8-12.1-22-21.2
	c-5.1-9.1-7.7-19.4-7.7-31c0-12,2.4-22.6,7.2-31.8s11.6-16.3,20.4-21.3c8.8-5,18.8-7.6,30-7.6c11.7,0,22,2.3,30.7,7
	c8.8,4.6,15.6,11.2,20.4,19.8c4.8,8.5,7.2,18.4,7.2,29.6c0,5.2-0.5,10.2-1.5,15.1H235c0.8,8.1,4.3,14.3,10.5,18.5
	c6.2,4.2,13.7,6.3,22.7,6.3c13.5,0,25.9-4.3,37.1-12.9l10,18.5C307.9,158.4,300.2,163,292.2,166.1z M283.4,82.6
	c-4.8-4.8-11.3-7.2-19.4-7.2c-7.6,0-14.2,2.4-19.6,7.3c-5.4,4.9-8.3,11.1-8.7,18.5h54.9C290.6,93.6,288.2,87.4,283.4,82.6z
	 M329.5,55.1h62.4v24.6H378l14.9,35.9l8.8,23.4l9-23.4l15.1-35.9h-14.1V55.1h62v24.6h-15.4l-39.5,86.1h-33.7l-38.3-86.1h-17.1
	L329.5,55.1z M569.2,166.1c-8,3.1-16.1,4.6-24,4.6c-12.5,0-23.5-2.5-33.1-7.6c-9.5-5-16.8-12.1-22-21.2c-5.1-9.1-7.7-19.4-7.7-31
	c0-12,2.4-22.6,7.2-31.8c4.8-9.2,11.6-16.3,20.4-21.3c8.8-5,18.8-7.6,30-7.6c11.7,0,22,2.3,30.7,7c8.8,4.6,15.6,11.2,20.4,19.8
	c4.8,8.5,7.2,18.4,7.2,29.6c0,5.2-0.5,10.2-1.5,15.1H512c0.8,8.1,4.3,14.3,10.5,18.5c6.2,4.2,13.7,6.3,22.7,6.3
	c13.5,0,25.9-4.3,37.1-12.9l10,18.5C584.9,158.4,577.2,163,569.2,166.1z M560.4,82.6c-4.8-4.8-11.3-7.2-19.4-7.2
	c-7.6,0-14.2,2.4-19.6,7.3c-5.4,4.9-8.3,11.1-8.7,18.5h54.9C567.6,93.6,565.2,87.4,560.4,82.6z"/>
<g>
	<path class="st1" d="M707.9,161.7c-4.2,2.8-9.2,5-15,6.6s-11.7,2.4-17.7,2.4c-18.7,0-33.3-5.3-43.7-16
		C621.2,144.1,616,129.2,616,110c0-18.9,5.2-33.5,15.6-44c10.4-10.5,25-15.7,43.7-15.7c6.2,0,13.2,1.2,21,3.7V35l-24.4-8.5L680.6,0
		l46.6,15.9v122.9l20,6.8l-8.5,26.6L707.9,161.7z M686.2,144.8c3.7-0.9,7.1-2.2,10-3.8V79.8c-2.6-1.3-5.8-2.4-9.6-3.2
		c-3.8-0.8-7.5-1.2-11.1-1.2c-8.5,0-15.2,3.2-20.4,9.5c-5.1,6.3-7.7,14.7-7.7,25.1c0,10.9,2.6,19.6,7.7,26.2
		c5.1,6.6,11.9,9.9,20.4,9.9C678.9,146.1,682.5,145.7,686.2,144.8z M761.4,55.1h51.2v86.1h20.2v24.6h-71.5v-24.6h20.2V79.8h-20.2
		L761.4,55.1L761.4,55.1z M807.2,6.8c3.3,3.3,4.9,7.5,4.9,12.7s-1.6,9.4-4.9,12.6c-3.3,3.2-7.5,4.8-12.7,4.8s-9.4-1.6-12.6-4.8
		c-3.2-3.2-4.8-7.4-4.8-12.6s1.6-9.4,4.8-12.7s7.4-4.9,12.6-4.9C799.7,2,804,3.6,807.2,6.8z M895.1,170.7c-15.8,0-27.7-3-35.9-8.9
		c-8.1-5.9-12.2-14.6-12.2-26c0-11.5,3.9-20.2,11.7-26.1s19.3-8.8,34.6-8.8H919c0-8.9-1.9-15.8-5.7-20.5s-8.8-7.1-15-7.1
		c-6.7,0-12.9,1-18.8,2.9l-2.2,11.5l-25.6-3.2l4.6-27.3c13.3-4.7,27.7-7.1,43.2-7.1c16.3,0,28.7,4.3,37.4,12.9s13,21.1,13,37.6v39.8
		l19.8,6.3l-8.5,25.4l-31-10.5C918.5,167.7,906.8,170.7,895.1,170.7z M882.5,124.2c-2.7,2.6-4,6.3-4,11.2c0,8.6,5.9,12.9,17.6,12.9
		c8.1,0,15.8-2.1,22.9-6.3v-21.7h-24.9C889,120.2,885.2,121.6,882.5,124.2z M986.4,157.1V34.9l-24.6-8.5l9-26.3l46.3,15.9v41.5
		c7.6-4.7,16.3-7.1,25.9-7.1c17.9,0,31.4,5,40.6,15.1s13.8,25,13.8,44.6c0,20-5,35.1-15,45.4c-10,10.2-24.7,15.4-44,15.4
		C1018.2,170.7,1000.9,166.2,986.4,157.1z M1058.8,137c4.7-6.1,7.1-15.1,7.1-27c0-11.4-2-20-5.9-25.9s-9.7-8.8-17.3-8.8
		c-10.9,0-19.4,2.6-25.6,7.8v59.8c5.7,2.1,12.7,3.2,21,3.2C1047.2,146.1,1054.1,143.1,1058.8,137z M1216.3,66.1
		c10.2,10.6,15.4,25.5,15.4,44.6c0,19-5.1,33.8-15.4,44.3c-10.2,10.5-24.8,15.7-43.7,15.7c-18.5,0-32.8-5.2-42.9-15.7
		s-15.1-25.2-15.1-44.3c0-19.2,5-34.1,15.1-44.6c10.1-10.6,24.4-15.9,42.9-15.9C1191.5,50.2,1206.1,55.5,1216.3,66.1z M1151.9,84.4
		c-4.7,6-7.1,14.8-7.1,26.3s2.4,20.3,7.1,26.3s11.7,9,21,9c9.4,0,16.5-3,21.3-9s7.2-14.8,7.2-26.3s-2.4-20.3-7.2-26.3
		c-4.8-6-11.9-9-21.3-9C1163.6,75.4,1156.7,78.4,1151.9,84.4z"/>
</g>
</svg>
