<svg id="Layer_1" xmlns="http://www.w3.org/2000/svg" viewBox="0 0 1231.7 172.2"><style>.st0{fill:#ccc}.st1{fill:#278}</style><path class="st0" d="M49.8 72.7c-6 0-11 1-15 3s-6 5-6 8.9c0 3.7 1.1 6.6 3.4 8.5 2.3 2 6.9 3.4 13.9 4.4l16.3 2.4c12.4 1.8 21.5 5.4 27.3 10.7 5.9 5.4 8.8 12.8 8.8 22.4 0 12.5-4.8 22-14.3 28.3s-21.2 9.5-35 9.5c-9.3 0-17.5-.9-24.6-2.7-7.2-1.8-13.9-4.6-20.2-8.3L0 134.2l25.4-3.9 2.2 12c6.8 2.9 13.5 4.4 20 4.4 6.8 0 12.5-1.1 17-3.3s6.7-5.3 6.7-9.4c0-3.3-1.2-5.9-3.5-7.8-2.4-2-6.9-3.3-13.5-4.1l-14.9-2.4c-12-2-21.3-5.7-27.9-11.3-6.6-5.6-9.9-13-9.9-22.1 0-10.7 4.3-19.3 12.9-25.9 8.6-6.5 20.2-9.8 34.9-9.8 15.8 0 29 3.9 39.8 11.7L93.6 86l-22.7 3.9L67 75.5c-5.9-1.9-11.6-2.8-17.2-2.8zm90.4 86.6c-7.1-7.6-10.6-19-10.6-34.1V79.8h-20.2V55.1h20.2V35.4l29.8-9.5v29.3h29.3v24.6h-29.3v38.5c0 8.8 1.3 15.5 4 20.1s6.7 7 12.1 7c4.4 0 9.7-1.6 15.9-4.9l5.9 22.9c-9.8 4.9-18.5 7.3-26.3 7.3-13.5 0-23.7-3.8-30.8-11.4zm152 6.8c-8 3.1-16.1 4.6-24 4.6-12.5 0-23.5-2.5-33.1-7.6-9.5-5-16.8-12.1-22-21.2-5.1-9.1-7.7-19.4-7.7-31 0-12 2.4-22.6 7.2-31.8s11.6-16.3 20.4-21.3c8.8-5 18.8-7.6 30-7.6 11.7 0 22 2.3 30.7 7 8.8 4.6 15.6 11.2 20.4 19.8 4.8 8.5 7.2 18.4 7.2 29.6 0 5.2-.5 10.2-1.5 15.1H235c.8 8.1 4.3 14.3 10.5 18.5 6.2 4.2 13.7 6.3 22.7 6.3 13.5 0 25.9-4.3 37.1-12.9l10 18.5c-7.4 6.3-15.1 10.9-23.1 14zm-8.8-83.5c-4.8-4.8-11.3-7.2-19.4-7.2-7.6 0-14.2 2.4-19.6 7.3-5.4 4.9-8.3 11.1-8.7 18.5h54.9c0-7.6-2.4-13.8-7.2-18.6zm46.1-27.5h62.4v24.6H378l14.9 35.9 8.8 23.4 9-23.4 15.1-35.9h-14.1V55.1h62v24.6h-15.4l-39.5 86.1h-33.7l-38.3-86.1h-17.1l-.2-24.6zm239.7 111c-8 3.1-16.1 4.6-24 4.6-12.5 0-23.5-2.5-33.1-7.6-9.5-5-16.8-12.1-22-21.2-5.1-9.1-7.7-19.4-7.7-31 0-12 2.4-22.6 7.2-31.8 4.8-9.2 11.6-16.3 20.4-21.3 8.8-5 18.8-7.6 30-7.6 11.7 0 22 2.3 30.7 7 8.8 4.6 15.6 11.2 20.4 19.8 4.8 8.5 7.2 18.4 7.2 29.6 0 5.2-.5 10.2-1.5 15.1H512c.8 8.1 4.3 14.3 10.5 18.5 6.2 4.2 13.7 6.3 22.7 6.3 13.5 0 25.9-4.3 37.1-12.9l10 18.5c-7.4 6.3-15.1 10.9-23.1 14zm-8.8-83.5c-4.8-4.8-11.3-7.2-19.4-7.2-7.6 0-14.2 2.4-19.6 7.3-5.4 4.9-8.3 11.1-8.7 18.5h54.9c0-7.6-2.4-13.8-7.2-18.6z"/><path class="st1" d="M707.9 161.7c-4.2 2.8-9.2 5-15 6.6s-11.7 2.4-17.7 2.4c-18.7 0-33.3-5.3-43.7-16-10.3-10.6-15.5-25.5-15.5-44.7 0-18.9 5.2-33.5 15.6-44 10.4-10.5 25-15.7 43.7-15.7 6.2 0 13.2 1.2 21 3.7V35l-24.4-8.5L680.6 0l46.6 15.9v122.9l20 6.8-8.5 26.6-30.8-10.5zm-21.7-16.9c3.7-.9 7.1-2.2 10-3.8V79.8c-2.6-1.3-5.8-2.4-9.6-3.2-3.8-.8-7.5-1.2-11.1-1.2-8.5 0-15.2 3.2-20.4 9.5-5.1 6.3-7.7 14.7-7.7 25.1 0 10.9 2.6 19.6 7.7 26.2 5.1 6.6 11.9 9.9 20.4 9.9 3.4 0 7-.4 10.7-1.3zm75.2-89.7h51.2v86.1h20.2v24.6h-71.5v-24.6h20.2V79.8h-20.2l.1-24.7zm45.8-48.3c3.3 3.3 4.9 7.5 4.9 12.7s-1.6 9.4-4.9 12.6c-3.3 3.2-7.5 4.8-12.7 4.8s-9.4-1.6-12.6-4.8c-3.2-3.2-4.8-7.4-4.8-12.6s1.6-9.4 4.8-12.7 7.4-4.9 12.6-4.9c5.2.1 9.5 1.7 12.7 4.9zm87.9 163.9c-15.8 0-27.7-3-35.9-8.9-8.1-5.9-12.2-14.6-12.2-26 0-11.5 3.9-20.2 11.7-26.1s19.3-8.8 34.6-8.8H919c0-8.9-1.9-15.8-5.7-20.5s-8.8-7.1-15-7.1c-6.7 0-12.9 1-18.8 2.9l-2.2 11.5-25.6-3.2 4.6-27.3c13.3-4.7 27.7-7.1 43.2-7.1 16.3 0 28.7 4.3 37.4 12.9s13 21.1 13 37.6v39.8l19.8 6.3-8.5 25.4-31-10.5c-11.7 6.1-23.4 9.1-35.1 9.1zm-12.6-46.5c-2.7 2.6-4 6.3-4 11.2 0 8.6 5.9 12.9 17.6 12.9 8.1 0 15.8-2.1 22.9-6.3v-21.7h-24.9c-5.1-.1-8.9 1.3-11.6 3.9zm103.9 32.9V34.9l-24.6-8.5 9-26.3 46.3 15.9v41.5c7.6-4.7 16.3-7.1 25.9-7.1 17.9 0 31.4 5 40.6 15.1s13.8 25 13.8 44.6c0 20-5 35.1-15 45.4-10 10.2-24.7 15.4-44 15.4-20.2-.2-37.5-4.7-52-13.8zm72.4-20.1c4.7-6.1 7.1-15.1 7.1-27 0-11.4-2-20-5.9-25.9s-9.7-8.8-17.3-8.8c-10.9 0-19.4 2.6-25.6 7.8v59.8c5.7 2.1 12.7 3.2 21 3.2 9.1 0 16-3 20.7-9.1zm157.5-70.9c10.2 10.6 15.4 25.5 15.4 44.6 0 19-5.1 33.8-15.4 44.3-10.2 10.5-24.8 15.7-43.7 15.7-18.5 0-32.8-5.2-42.9-15.7s-15.1-25.2-15.1-44.3c0-19.2 5-34.1 15.1-44.6 10.1-10.6 24.4-15.9 42.9-15.9 18.9 0 33.5 5.3 43.7 15.9zm-64.4 18.3c-4.7 6-7.1 14.8-7.1 26.3s2.4 20.3 7.1 26.3 11.7 9 21 9c9.4 0 16.5-3 21.3-9s7.2-14.8 7.2-26.3-2.4-20.3-7.2-26.3c-4.8-6-11.9-9-21.3-9-9.3 0-16.2 3-21 9z"/></svg>