<?xml version="1.0" encoding="utf-8"?>
<!-- Generator: Adobe Illustrator 18.1.1, SVG Export Plug-In . SVG Version: 6.00 Build 0)  -->
<!DOCTYPE svg PUBLIC "-//W3C//DTD SVG 1.1//EN" "http://www.w3.org/Graphics/SVG/1.1/DTD/svg11.dtd">
<svg version="1.1" id="Layer_1" xmlns="http://www.w3.org/2000/svg" xmlns:xlink="http://www.w3.org/1999/xlink" x="0px" y="0px"
	 viewBox="0 0 1334.7 284.6" enable-background="new 0 0 1334.7 284.6" xml:space="preserve">
<path fill="#CCCCCC" d="M144.1,262c-7.5-2-12.8-3.7-16.1-5.1c-3.3-1.4-6-2.2-8.2-2.2c-2.2,0-4.1,1-5.8,2.9c-1.7,1.9-2.5,4-2.5,6.4
	c0,2.4,0.6,4.4,1.9,6c1.3,1.7,2.8,2.9,4.4,3.7c16.9,7.3,35,11,54.3,11c17.6,0,31.9-4.2,42.7-12.6c10.5-8.2,15.7-18.9,15.7-31.9
	c0-13.7-5-24.2-15.1-31.5c-4.6-3.3-9.7-6-15.5-8.1c-5.8-2.1-11.7-3.8-17.8-5.4c-6.1-1.5-12-3-17.8-4.3c-5.8-1.4-11-3.1-15.5-5.2
	c-10-4.4-15.1-11-15.1-19.6c0-8.4,3.9-14.8,11.6-19.4c7.6-4.4,17.3-6.6,29-6.6c12.8,0,24.1,1.8,34,5.2c3.3,1.2,6,1.8,7.9,1.8
	c1.9,0,3.7-1,5.2-3.1c1.6-2.1,2.4-4.2,2.4-6.5c0-4.6-2.1-7.6-6.4-9.1c-13.7-5-28.8-7.5-45.4-7.5c-18.4,0-33.1,4.6-44,13.9
	c-10,8.5-15.1,19.5-15.1,32.9c0,12.5,5,22.5,15.1,30.1c4.6,3.3,9.8,6.1,15.6,8.2c5.9,2.1,11.8,4,17.8,5.7c6,1.7,11.9,3.2,17.8,4.7
	c5.9,1.4,11,3.1,15.4,4.9c10.2,4.4,15.3,10.3,15.3,17.6c0,17.5-13.3,26.2-39.9,26.2C160.3,265,151.6,264,144.1,262z M282.2,264.6
	c-3.5-2.1-5.2-6.1-5.2-11.9v-68.9h25.8c2.6,0,4.7-0.8,6.4-2.5c1.7-1.7,2.5-3.8,2.5-6.4c0-2.6-0.8-4.7-2.5-6.4
	c-1.7-1.7-3.8-2.5-6.4-2.5H277v-18.3c0-1.2-0.4-2.3-1.3-3.2c-0.8-0.9-1.9-1.4-3.1-1.4c-1.2,0-2.5,0.7-3.9,2.1l-31,30.4
	c-1.4,1.2-2.1,2.5-2.1,3.9c0,2.9,1.4,4.3,4.3,4.3h16.2v70.7c0,12.2,4.2,20.7,12.6,25.6c3.5,2.1,7.1,3.4,11,3.9
	c3.8,0.5,8,0.7,12.7,0.7c4.6,0,10.2-1.5,16.8-4.6c3-1.4,4.6-3.6,4.6-6.6c0-3-0.8-5.3-2.5-6.8c-1.7-1.5-3.5-2.3-5.6-2.3
	c-2.1,0-4,0.3-5.7,1c-1.8,0.7-4.6,1-8.7,1C287.2,266.4,284.2,265.8,282.2,264.6L282.2,264.6z M342.7,231.5h77.4c3.2,0,5.7-1,7.6-3
	c1.9-2,2.9-4.4,2.9-7.3c0-16-4.6-29.4-13.9-40.2c-9.9-11.6-23.4-17.3-40.4-17.3c-18,0-31.8,6.2-41.5,18.7c-8.7,11.1-13,25-13,41.8
	c0,19.3,5.2,34.2,15.5,44.7c10.3,10.5,24.9,15.7,43.6,15.7c9,0,16.9-1,23.7-3c3-0.9,5.9-2,8.4-3.2c2.6-1.2,5.5-2.7,8.8-4.4
	c3.3-1.7,4.9-4.6,4.9-8.6c0-2.1-0.9-4-2.7-5.7c-1.8-1.7-3.7-2.5-5.7-2.5c-2,0-4.3,0.7-7.1,2.1c-7.9,4-17.7,5.9-29.4,5.9
	c-11.7,0-20.8-3-27.4-9.1C347.8,250,343.9,241.8,342.7,231.5L342.7,231.5z M398.1,189c7.3,6.2,11.3,14.8,11.9,25.6h-67.3
	c0.3-5.9,1.6-11,3.9-15.3c6.2-12,16.1-18,29.7-18C384.8,181.3,392.1,183.8,398.1,189L398.1,189z M494.2,259.3l-34.9-88.5
	c-1.8-4-5.2-5.9-10-5.9c-2.4,0-4.6,1-6.6,3.1c-2,2.1-3,4.1-3,6.3c0,2.1,0.4,4.1,1.1,5.9l39.7,94.9c1.1,2.3,2.7,4.3,4.9,5.9
	c2.2,1.7,4.8,2.5,7.6,2.5h2.3c2.9,0,5.4-0.8,7.6-2.5c2.2-1.7,3.8-3.7,4.9-5.9l39.7-94.9c0.8-1.8,1.1-4,1.1-6.4c0-1.8-1-3.8-3-5.8
	c-2-2.1-4.2-3.1-6.6-3.1c-4.9,0-8.2,2-10,5.9L494.2,259.3z M579.2,231.5h77.4c3.2,0,5.7-1,7.6-3c1.9-2,2.9-4.4,2.9-7.3
	c0-16-4.6-29.4-13.9-40.2c-9.9-11.6-23.4-17.3-40.4-17.3c-18,0-31.8,6.2-41.5,18.7c-8.7,11.1-13,25-13,41.8
	c0,19.3,5.2,34.2,15.5,44.7c10.3,10.5,24.9,15.7,43.6,15.7c9,0,16.9-1,23.7-3c3-0.9,5.9-2,8.4-3.2c2.6-1.2,5.5-2.7,8.8-4.4
	c3.3-1.7,4.9-4.6,4.9-8.6c0-2.1-0.9-4-2.7-5.7c-1.8-1.7-3.7-2.5-5.7-2.5c-2,0-4.3,0.7-7.1,2.1c-7.9,4-17.7,5.9-29.4,5.9
	c-11.7,0-20.8-3-27.4-9.1C584.3,250,580.4,241.8,579.2,231.5L579.2,231.5z M634.6,189c7.3,6.2,11.3,14.8,11.9,25.6h-67.3
	c0.3-5.9,1.6-11,3.9-15.3c6.2-12,16.1-18,29.7-18C621.2,181.3,628.5,183.8,634.6,189L634.6,189z M759.7,123.1c-2.9,0-5.3,1-7.3,3.1
	c-2,2.1-3,4.5-3,7.4v138.5c0,2.9,1,5.3,3,7.3c2,2,4.4,3,7.3,3h45.9c25.4,0,45.6-8.5,60.7-25.6c6.7-7.5,11.7-15.9,14.9-25.4
	c3.3-9.5,4.9-19.1,4.9-28.6s-1.6-19.1-4.9-28.6c-3.3-9.5-8.3-18-14.9-25.4c-15.1-17-35.3-25.6-60.7-25.6H759.7z M770.2,263V142.5
	H803c18.9,0,34.1,5.6,45.6,16.7c11.3,11.1,16.9,25.6,16.9,43.6c0,18-5.6,32.5-16.9,43.6C837.1,257.4,821.9,263,803,263H770.2z
	 M912.2,175.3v97.9c0,2.9,1,5.3,3,7.3c2,2,4.4,3,7.4,3c3,0,5.4-1,7.4-3c2-2,3-4.4,3-7.3v-97.9c0-3-1-5.6-3-7.5c-2-2-4.4-3-7.4-3
	c-3,0-5.4,1-7.4,3C913.2,169.8,912.2,172.3,912.2,175.3L912.2,175.3z M935,129.7c0-3.2-1.1-5.9-3.4-8.2c-2.3-2.3-5-3.4-8.2-3.4H922
	c-3.2,0-5.9,1.1-8.2,3.4c-2.3,2.3-3.4,5-3.4,8.2v0.9c0,3.2,1.1,5.9,3.4,8.2c2.3,2.3,5,3.4,8.2,3.4h1.4c3.2,0,5.9-1.1,8.2-3.4
	s3.4-5,3.4-8.2V129.7z M962.6,179.4c0,3.3,0.8,5.8,2.5,7.4c1.7,1.6,3.3,2.4,4.8,2.4c1.5,0,2.9-0.1,4.1-0.5
	c11.4-3.7,21.5-5.5,30.4-5.5c10.3,0,18,2.2,23,6.5c5,4.3,7.5,11.6,7.5,21.8v1.8h-27.6c-17.2,0-30.4,3.5-39.7,10.5
	c-8.5,6.4-12.8,15.2-12.8,26.5c0,10.3,3.7,18.7,11,25.1c7,6.1,15.7,9.1,26.2,9.1c10.6,0,19.4-1.8,26.4-5.5
	c6.9-3.7,12.4-7.6,16.5-11.9v5.9c0,2.9,1,5.3,3,7.3c2,2,4.4,3,7.3,3c2.9,0,5.4-1,7.4-3c2.1-2,3.1-4.4,3.1-7.3v-64.6
	c0-12.3-3.8-22.6-11.4-30.8c-8.5-9.4-20.5-14.1-36.1-14.1c-13.7,0-26.9,2.7-39.7,8.2C964.6,173.6,962.6,176.1,962.6,179.4z
	 M984.7,234.2c6.1-2.7,14.5-4.1,25.3-4.1h24.9v19.2c-4,4.4-9,8.4-15.2,11.9c-6.2,3.5-12.8,5.2-20,5.2c-16.1,0-24.2-6.1-24.2-18.3
	C975.6,241.6,978.6,236.9,984.7,234.2z M1106.2,125.1c0-3-1-5.6-3-7.5c-2-2-4.4-3-7.4-3s-5.4,1-7.4,3c-2,2-3,4.5-3,7.5v148.1
	c0,2.9,1,5.3,3,7.3c2,2,4.4,3,7.4,3s5.4-1,7.4-3c2-2,3-4.4,3-7.3v-5.9c11.3,11.6,24.2,17.3,38.9,17.3c14.7,0,27.3-5.2,38-15.5
	c11.6-11.4,17.3-26.4,17.3-45c0-18.3-5.8-33.2-17.3-44.7c-10.5-10.5-23.1-15.7-37.9-15.7c-14.8,0-27.8,5.8-39,17.3V125.1z
	 M1106.2,200.2c10.3-11.4,22.4-17.1,36.1-17.1c11.3,0,20.2,3.4,26.9,10.3c7,7.5,10.5,17.7,10.5,30.8c0,6.7-0.9,12.6-2.7,17.8
	c-5.8,15.5-17.3,23.3-34.7,23.3c-13.7,0-25.7-5.7-36.1-17.1V200.2z M1233.8,180.3c-10.7,11.1-16,25.7-16,43.8
	c0,18.1,5.3,32.7,16,43.8c10.5,11.1,24.6,16.7,42.4,16.7c17.6,0,31.8-5.6,42.4-16.7c10.6-11.3,16-25.9,16-43.8
	c0-17.9-5.3-32.6-16-43.8c-10.7-11.1-24.8-16.7-42.4-16.7C1258.5,163.7,1244.3,169.2,1233.8,180.3L1233.8,180.3z M1242,243.3
	c-2.3-5.3-3.4-11.8-3.4-19.3s1.1-14,3.4-19.3c6.4-14.8,17.8-22.1,34.2-22.1c10,0,18.5,3.1,25.3,9.4c8.2,7.6,12.3,18.3,12.3,31.9
	c0,14.1-4.1,25-12.3,32.4c-3.7,3.2-7.7,5.6-12.2,7.1c-4.5,1.5-8.9,2.3-13.2,2.3s-8.8-0.8-13.2-2.3c-4.5-1.5-8.5-3.9-12.1-7.2
	C1247.2,253,1244.3,248.7,1242,243.3z M45.5,184.2h-38c-4.1,0-7.5-3.4-7.5-7.5s3.4-7.5,7.5-7.5h38c4.1,0,7.5,3.4,7.5,7.5
	S49.6,184.2,45.5,184.2z M81.1,92.6c-1.9,0-3.8-0.7-5.3-2.2l-27-27c-2.9-2.9-2.9-7.7,0-10.6c2.9-2.9,7.7-2.9,10.6,0l27,27
	c2.9,2.9,2.9,7.7,0,10.6C85,91.9,83,92.6,81.1,92.6z M171.1,53c-4.1,0-7.5-3.4-7.5-7.5v-38c0-4.1,3.4-7.5,7.5-7.5s7.5,3.4,7.5,7.5
	v38C178.6,49.6,175.2,53,171.1,53z"/>
</svg>
